<svg width="20" height="20" viewBox="0 0 20 20" fill="none" xmlns="http://www.w3.org/2000/svg">
<g clip-path="url(#clip0_733_1655)">
<path d="M18.7958 11.3856L17.2125 5.68889C16.7484 4.02 15.7398 2.55413 14.3469 1.52428C12.9541 0.494433 11.257 -0.0402888 9.52537 0.00511126C7.79375 0.0505113 6.12699 0.673428 4.79004 1.77485C3.45308 2.87626 2.52266 4.39297 2.14665 6.08389L0.920818 11.5964C0.785414 12.2055 0.788545 12.8372 0.929979 13.445C1.07141 14.0527 1.34754 14.6209 1.73797 15.1077C2.1284 15.5944 2.62317 15.9873 3.18574 16.2572C3.74832 16.5271 4.36434 16.6672 4.98832 16.6672H5.91665C6.10791 17.6091 6.61893 18.4559 7.3631 19.0642C8.10728 19.6725 9.03885 20.0047 9.99998 20.0047C10.9611 20.0047 11.8927 19.6725 12.6369 19.0642C13.381 18.4559 13.8921 17.6091 14.0833 16.6672H14.7817C15.424 16.6673 16.0576 16.5188 16.6331 16.2334C17.2086 15.948 17.7103 15.5335 18.099 15.0221C18.4877 14.5107 18.753 13.9164 18.874 13.2856C18.995 12.6547 18.9685 12.0045 18.7966 11.3856H18.7958ZM9.99998 18.3339C9.48477 18.3318 8.98279 18.1705 8.56274 17.8721C8.14268 17.5738 7.82505 17.153 7.65332 16.6672H12.3467C12.1749 17.153 11.8573 17.5738 11.4372 17.8721C11.0172 18.1705 10.5152 18.3318 9.99998 18.3339ZM16.7717 14.0131C16.5394 14.3211 16.2386 14.5708 15.893 14.7422C15.5474 14.9136 15.1666 15.0021 14.7808 15.0006H4.98832C4.61397 15.0005 4.24442 14.9164 3.90694 14.7544C3.56945 14.5924 3.27266 14.3567 3.03845 14.0646C2.80425 13.7726 2.63862 13.4317 2.55379 13.0671C2.46895 12.7025 2.46709 12.3235 2.54832 11.9581L3.77332 6.44472C4.06861 5.11656 4.79941 3.92523 5.84953 3.0601C6.89966 2.19497 8.20884 1.7057 9.56896 1.67007C10.9291 1.63444 12.2621 2.05449 13.3561 2.86345C14.4501 3.67241 15.2422 4.82384 15.6067 6.13472L17.19 11.8314C17.2946 12.2025 17.3113 12.593 17.2386 12.9717C17.166 13.3504 17.0061 13.7069 16.7717 14.0131Z" fill="#0C1A30"/>
<rect x="11" width="9" height="9" rx="4.5" fill="#FE3A30"/>
</g>
<defs>
<clipPath id="clip0_733_1655">
<rect width="20" height="20" fill="white"/>
</clipPath>
</defs>
</svg>
