<svg width="41" height="41" viewBox="0 0 41 41" fill="none" xmlns="http://www.w3.org/2000/svg">
<path d="M37.3988 14.0494C36.97 13.0159 35.6205 12.3975 33.7874 12.3975C33.433 12.4001 33.0789 12.4206 32.7265 12.459C33.6759 11.7682 34.3707 10.7834 34.7031 9.65732C34.7859 9.20402 34.7509 8.73703 34.6013 8.30117C34.4517 7.86531 34.1926 7.4752 33.8489 7.16828C33.538 6.82351 33.144 6.56403 32.7044 6.41452C32.2648 6.26501 31.7943 6.23045 31.3377 6.31412C30.212 6.64361 29.2262 7.33463 28.5326 8.28041C28.5704 7.9263 28.5903 7.57052 28.5924 7.21441C28.5924 5.38137 27.9757 4.03178 26.9404 3.6047C26.5545 3.46332 26.1344 3.44404 25.7371 3.54947C25.3399 3.65489 24.9846 3.87993 24.7196 4.19407C24.4377 4.47424 23.6314 5.29082 23.2555 9.61461C22.4139 9.37533 21.5184 9.40694 20.6958 9.70496C19.8731 10.003 19.1651 10.5523 18.6721 11.2751L4.91829 30.9209C4.57274 31.4144 4.4121 32.0139 4.46458 32.614C4.51707 33.2142 4.77932 33.7766 5.20529 34.2027L6.80258 35.7999C7.22859 36.2259 7.79106 36.4882 8.39121 36.5407C8.99136 36.5931 9.59081 36.4325 10.0843 36.0869L29.7301 22.3332C30.454 21.8395 31.0036 21.1301 31.3008 20.306C31.598 19.4818 31.6277 18.5849 31.3855 17.7429C34.2589 17.4934 36.08 17.0014 36.8043 16.2771C37.1203 16.0119 37.3469 15.6558 37.4533 15.2572C37.5597 14.8586 37.5407 14.4369 37.3988 14.0494ZM31.6657 7.9917C31.8491 7.9604 32.0376 7.97964 32.211 8.04735C32.3844 8.11507 32.536 8.22871 32.6497 8.37607C32.7934 8.48747 32.9042 8.63573 32.9704 8.80508C33.0365 8.97443 33.0556 9.15855 33.0255 9.33787C32.7607 10.7302 29.9505 12.4829 27.9347 13.4379L27.5657 13.0689C28.5172 11.0547 30.2682 8.25649 31.6657 7.9917ZM25.9359 5.40016C26.1153 5.22932 26.2502 5.1627 26.2981 5.18149C26.4843 5.25836 26.8926 5.87678 26.8926 7.2127C26.8169 8.71113 26.5634 10.1953 26.1375 11.6339L25.1996 10.696C25.1142 10.6106 25.0134 10.5508 24.9212 10.4739C25.1518 7.07091 25.6609 5.6752 25.9359 5.40016ZM9.10542 34.6793C8.94082 34.7948 8.74077 34.8485 8.54046 34.831C8.34016 34.8135 8.15245 34.7259 8.01037 34.5836L6.41308 32.9863C6.27219 32.844 6.18577 32.6568 6.16891 32.4572C6.15205 32.2577 6.20582 32.0586 6.32083 31.8947L8.89529 28.2184L12.7817 32.1168L9.10542 34.6793ZM28.7512 20.9238L25.5686 23.1446L22.5944 20.1687C22.4343 20.0083 22.2169 19.9181 21.9903 19.918C21.7636 19.9178 21.5462 20.0077 21.3858 20.1678C21.2254 20.328 21.1352 20.5453 21.135 20.772C21.1349 20.9987 21.2248 21.2161 21.3849 21.3765L24.149 24.1406L19.8782 27.125L16.8271 24.0739C16.666 23.9184 16.4502 23.8323 16.2263 23.8342C16.0023 23.8362 15.7881 23.926 15.6297 24.0844C15.4713 24.2427 15.3815 24.457 15.3795 24.6809C15.3776 24.9049 15.4637 25.1206 15.6193 25.2817L18.4654 28.1295L14.1945 31.114L9.88612 26.797L16.8493 16.8494L18.8429 18.843C18.9217 18.9246 19.016 18.9897 19.1202 19.0345C19.2244 19.0792 19.3365 19.1028 19.4499 19.1038C19.5633 19.1048 19.6758 19.0831 19.7808 19.0402C19.8857 18.9972 19.9811 18.9338 20.0613 18.8536C20.1415 18.7734 20.2049 18.6781 20.2479 18.5731C20.2908 18.4681 20.3124 18.3556 20.3114 18.2422C20.3105 18.1288 20.2869 18.0167 20.2421 17.9125C20.1974 17.8083 20.1323 17.714 20.0507 17.6352L17.8452 15.4281L20.0661 12.2454C20.2806 11.9381 20.5601 11.6819 20.885 11.495C21.2098 11.3081 21.5718 11.1951 21.9452 11.1641C22.0204 11.1641 22.0956 11.1538 22.169 11.1538C22.8482 11.154 23.4995 11.4237 23.9799 11.9038L29.0929 17.0168C29.1512 17.0811 29.2054 17.149 29.2552 17.2201C29.3033 17.3847 29.4012 17.5303 29.5354 17.6369C29.8339 18.1856 29.9189 18.8253 29.7738 19.4329C29.6287 20.0404 29.2638 20.5727 28.7495 20.9272L28.7512 20.9238ZM35.5982 15.0608C35.3198 15.3375 33.9207 15.8466 30.5262 16.0858C30.4493 15.9935 30.3878 15.8927 30.3024 15.8073L29.3645 14.8694C30.8025 14.4391 32.2868 14.1822 33.7857 14.1041C35.1216 14.1041 35.74 14.5141 35.8186 14.7003C35.8374 14.7447 35.7793 14.8831 35.6 15.0642L35.5982 15.0608Z" fill="#3A9B7A"/>
</svg>
